<svg version="1" xmlns="http://www.w3.org/2000/svg" width="390.667" height="390.667"
     viewBox="0 0 293.000000 293.000000">
    <path d="M111.5 26.4c-4 1.9-15.8 13.3-57.1 54.7C6.3 129.5 2.2 133.9 1 138.2c-1.5 5.6-.7 14.5 1.6 19.1 2.2 4.2 103.9 105.8 108.4 108.3 4.7 2.5 18.1 2.6 22.5.2 1.7-.9 17.6-16.1 35.3-33.8 24.7-24.6 33.2-32.6 36.8-34.2 4.4-1.9 6.8-2 41.6-2.3 26.6-.2 37.7-.6 39.9-1.5 6.1-2.6 5.9.5 5.9-84.4 0-53.6-.3-78.2-1.1-79.9-.6-1.3-2.3-3.1-3.9-4-2.6-1.6-10.2-1.7-87.2-1.7h-84.3l-5 2.4z" />
</svg>
